<?xml version="1.0" standalone="no"?>
<!DOCTYPE svg PUBLIC "-//W3C//DTD SVG 20010904//EN"
 "http://www.w3.org/TR/2001/REC-SVG-20010904/DTD/svg10.dtd">
<svg version="1.0" xmlns="http://www.w3.org/2000/svg"
 width="126.000000pt" height="155.000000pt" viewBox="0 0 126.000000 155.000000"
 preserveAspectRatio="xMidYMid meet">

<g transform="translate(0.000000,155.000000) scale(0.100000,-0.100000)"
fill="#000000" stroke="none">
<path d="M20 1420 l0 -120 339 0 c187 0 362 -5 392 -10 106 -20 169 -92 169
-195 0 -71 -28 -125 -88 -165 -34 -24 -43 -25 -214 -28 l-178 -3 0 -125 0
-124 231 -320 231 -320 169 0 168 0 -229 317 c-126 175 -227 320 -224 324 2 3
26 9 53 13 70 9 165 60 226 122 132 131 167 334 88 503 -31 65 -129 168 -190
200 -94 48 -132 51 -550 51 l-393 0 0 -120z"/>
<path d="M20 585 l0 -575 140 0 140 0 0 575 0 575 -140 0 -140 0 0 -575z"/>
</g>
</svg>
